<?xml version="1.0" encoding="utf-8"?>
<!-- Generator: Adobe Illustrator 19.0.0, SVG Export Plug-In . SVG Version: 6.00 Build 0)  -->
<svg version="1.1" id="Layer_1" xmlns="http://www.w3.org/2000/svg" xmlns:xlink="http://www.w3.org/1999/xlink" x="0px" y="0px"
	 viewBox="-144 107 350.1 268" style="enable-background:new -144 107 350.1 268;" xml:space="preserve">
<style type="text/css">
	.st0{fill:#FFFFFF;}
</style>
<path id="XMLID_23_" class="st0" d="M333,350.1c0,0.7-0.6,1.2-1.2,1.2 M331.8-248.7c0.7,0,1.2,0.6,1.2,1.2"/>
<path id="XMLID_22_" d="M-49.5,355.4c2,9.1,1.5,9.6-6.4,9.6c-24.3,0-48.7,0-73,0c-8.1,0-8.4-0.4-6.5-9.5c4.1,0,8.4,0.2,12.7,0
	c12.2-0.8,18.5-6.6,20.2-18.6c0.5-3.5,0.7-7,0.7-10.5c0-56.3,0-112.7,0-169c0-3-0.2-6-0.6-9c-2.3-14.4-8.1-19.8-22.7-21.1
	c-3.5-0.3-6.9-0.6-10.8-0.9c-0.1-1.9-0.2-3.5-0.3-5.1c-0.2-2.7,0.9-3.9,3.8-3.9c21.5,0.1,43-0.1,64.5,0.2c1.7,0,4.1,2.4,5,4.3
	c17.1,36.5,34,73,50.9,109.5c10.8,23.4,21.7,46.8,32.5,70.2c0.7,1.5,1.5,2.9,2.7,5.2c4.1-8.8,7.8-16.9,11.5-25
	c24.1-52.8,48.2-105.6,72.2-158.6c2-4.5,4.2-6.6,9.2-6c3.2,0.4,6.5,0.1,10.7,0.1c-0.8,2.3-1.1,3.9-1.8,5.3
	C89.7,201.8,54.3,280.9,19,360.1c-1.2,2.7-2.1,4.9-5.9,4.9c-3.7-0.1-4.7-2.1-6-4.8c-29-63.2-58-126.4-87.1-189.6
	c-0.7-1.5-1.4-3-2.6-5.4c-0.3,1.9-0.7,2.9-0.7,3.9c0.1,53.3,0.1,106.7,0.3,160c0,3,0.4,6,0.8,8.9c1.7,11.1,7.2,16.4,18.5,17.2
	C-58.8,355.7-54,355.4-49.5,355.4z"/>
<path id="XMLID_21_" d="M69.2,282.6c2.4-5.3,4.2-9.8,6.5-14.1c0.5-1,2.9-1.3,4.4-1.4c7.6-0.1,15.2-0.1,23.8-0.1
	c-3.2-7.8-5.6-15.1-9.2-21.7c-4-7.4-3.6-13.7,0.2-21c4.8-9.1,8.6-18.8,12.8-28.2c0.7-1.6,1.6-3.1,2.9-5.9c1.4,2.8,2.3,4.5,3,6.2
	c17.4,41.4,34.6,82.9,52.1,124.2c2.8,6.7,6.4,13.1,10.1,19.5c5.6,9.7,14.3,14.7,25.5,15c4.3,0.1,4.7,2.2,4.8,5.6
	c0.1,4.1-2.4,4.1-5.2,4.1c-29.7,0-59.3,0-89,0c-3.3,0-5.3-0.4-5.3-4.5c0-3.9,1.3-5,5.2-5.3c4.2-0.3,8.6-1.4,12.5-2.9
	c5.8-2.3,8.3-6.6,7.2-12.7c-0.9-5.2-2.3-10.4-4.3-15.3c-5-12.7-10.6-25.2-15.7-37.8c-1.2-2.9-2.8-3.5-5.6-3.5
	c-10.2,0.1-20.3,0.1-30.5,0C73.7,283,72,282.8,69.2,282.6z"/>
</svg>
